2Varta-Regular150.ufo
<glyph name="one" format="1">
  <advance width="552"/>
  <unicode hex="0031"/>
  <outline>
    <contour>
      <point x="50" y="1199" type="line"/>
      <point x="64" y="1076" type="line"/>
      <point x="235" y="1099" type="line"/>
      <point x="235" y="1" type="line"/>
      <point x="383" y="1" type="line"/>
      <point x="383" y="1245" type="line"/>
    </contour>
  </outline>
</glyph>
<glyph name="three" format="1">
  <advance width="849"/>
  <unicode hex="0033"/>
  <outline>
    <contour>
      <point x="287" y="1244"/>
      <point x="173" y="1234"/>
      <point x="77" y="1209" type="curve"/>
      <point x="92" y="1079" type="line"/>
      <point x="165" y="1101"/>
      <point x="260" y="1117"/>
      <point x="372" y="1117" type="curve" smooth="yes"/>
      <point x="517" y="1117"/>
      <point x="552" y="1066"/>
      <point x="552" y="930" type="curve" smooth="yes"/>
      <point x="552" y="745"/>
      <point x="350" y="718"/>
      <point x="205" y="711" type="curve"/>
      <point x="203" y="590" type="line"/>
      <point x="224" y="590"/>
      <point x="332" y="589"/>
      <point x="367" y="589" type="curve" smooth="yes"/>
      <point x="552" y="589"/>
      <point x="600" y="504"/>
      <point x="600" y="363" type="curve" smooth="yes"/>
      <point x="600" y="203"/>
      <point x="555" y="117"/>
      <point x="367" y="117" type="curve" smooth="yes"/>
      <point x="268" y="117"/>
      <point x="172" y="133"/>
      <point x="65" y="160" type="curve"/>
      <point x="35" y="34" type="line"/>
      <point x="119" y="8"/>
      <point x="241" y="-16"/>
      <point x="370" y="-16" type="curve" smooth="yes"/>
      <point x="624" y="-16"/>
      <point x="761" y="79"/>
      <point x="761" y="372" type="curve" smooth="yes"/>
      <point x="761" y="543"/>
      <point x="685" y="665"/>
      <point x="493" y="682" type="curve"/>
      <point x="493" y="686" type="line"/>
      <point x="642" y="726"/>
      <point x="705" y="835"/>
      <point x="705" y="961" type="curve" smooth="yes"/>
      <point x="705" y="1167"/>
      <point x="606" y="1244"/>
      <point x="387" y="1244" type="curve" smooth="yes"/>
    </contour>
  </outline>
</glyph>
<glyph name="five" format="1">
  <advance width="881"/>
  <unicode hex="0035"/>
  <outline>
    <contour>
      <point x="120" y="1228" type="line"/>
      <point x="120" y="650" type="line"/>
      <point x="242" y="662"/>
      <point x="347" y="669"/>
      <point x="423" y="669" type="curve" smooth="yes"/>
      <point x="578" y="669"/>
      <point x="620" y="593"/>
      <point x="620" y="443" type="curve" smooth="yes"/>
      <point x="620" y="401" type="line" smooth="yes"/>
      <point x="618" y="200"/>
      <point x="572" y="114"/>
      <point x="387" y="114" type="curve" smooth="yes"/>
      <point x="288" y="114"/>
      <point x="202" y="132"/>
      <point x="86" y="169" type="curve"/>
      <point x="59" y="44" type="line"/>
      <point x="143" y="8"/>
      <point x="261" y="-16"/>
      <point x="390" y="-16" type="curve" smooth="yes"/>
      <point x="644" y="-16"/>
      <point x="781" y="79"/>
      <point x="781" y="402" type="curve" smooth="yes"/>
      <point x="781" y="443" type="line" smooth="yes"/>
      <point x="777" y="648"/>
      <point x="716" y="790"/>
      <point x="469" y="790" type="curve" smooth="yes"/>
      <point x="399" y="790"/>
      <point x="338" y="788"/>
      <point x="262" y="779" type="curve"/>
      <point x="262" y="1098" type="line"/>
      <point x="735" y="1098" type="line"/>
      <point x="735" y="1228" type="line"/>
    </contour>
  </outline>
</glyph>
<glyph name="candraBindu-deva" format="1">
  <advance width="540"/>
  <unicode hex="0901"/>
  <outline>
    <contour>
      <point x="209" y="1742"/>
      <point x="181" y="1715"/>
      <point x="181" y="1652" type="curve" smooth="yes"/>
      <point x="181" y="1590"/>
      <point x="209" y="1564"/>
      <point x="272" y="1564" type="curve" smooth="yes"/>
      <point x="334" y="1564"/>
      <point x="361" y="1590"/>
      <point x="361" y="1652" type="curve" smooth="yes"/>
      <point x="361" y="1715"/>
      <point x="334" y="1742"/>
      <point x="272" y="1742" type="curve" smooth="yes"/>
    </contour>
    <component base="eCandraMatra-deva" xOffset="-2"/>
    <contour>
      <point x="274" y="1168" type="move" name="_topcandrabindu"/>
    </contour>
  </outline>
</glyph>
<glyph name="aa-deva" format="1">
  <advance width="1943"/>
  <unicode hex="0906"/>
  <outline>
    <component base="a-deva"/>
    <component base="aaMatra-deva" xOffset="1386"/>
    <contour>
      <point x="1669" y="1168" type="move" name="top"/>
    </contour>
    <contour>
      <point x="1325" y="28" type="move" name="bottom"/>
    </contour>
  </outline>
</glyph>
<glyph name="ii-deva" format="1">
  <advance width="1009"/>
  <unicode hex="0908"/>
  <outline>
    <component base="i-deva"/>
    <component base="reph-deva" xOffset="491"/>
    <contour>
      <point x="237" y="584" type="move" name="top"/>
    </contour>
    <contour>
      <point x="237" y="14" type="move" name="bottom"/>
    </contour>
  </outline>
</glyph>
<glyph name="rVocalic-deva" format="1">
  <advance width="1500"/>
  <unicode hex="090B"/>
  <outline>
    <contour>
      <point x="-15" y="1262" type="line"/>
      <point x="-15" y="1129" type="line"/>
      <point x="1510" y="1129" type="line"/>
      <point x="1510" y="1262" type="line"/>
    </contour>
    <contour>
      <point x="946" y="947" type="line"/>
      <point x="1051" y="792" type="line"/>
      <point x="1058" y="855" type="line"/>
      <point x="775" y="637" type="line"/>
      <point x="828" y="514" type="line"/>
      <point x="1161" y="774" type="line" smooth="yes"/>
      <point x="1219" y="811"/>
      <point x="1233" y="842"/>
      <point x="1233" y="878" type="curve" smooth="yes"/>
      <point x="1233" y="958"/>
      <point x="1143" y="998"/>
      <point x="1034" y="1023" type="curve"/>
    </contour>
    <contour>
      <point x="1162" y="115" type="line"/>
      <point x="1312" y="190"/>
      <point x="1380" y="297"/>
      <point x="1380" y="414" type="curve" smooth="yes"/>
      <point x="1380" y="542"/>
      <point x="1297" y="683"/>
      <point x="1120" y="864" type="curve"/>
      <point x="1046" y="797" type="line"/>
      <point x="1161" y="644"/>
      <point x="1229" y="531"/>
      <point x="1229" y="439" type="curve" smooth="yes"/>
      <point x="1229" y="367"/>
      <point x="1183" y="300"/>
      <point x="1075" y="239" type="curve"/>
    </contour>
    <contour>
      <point x="152" y="211" type="line"/>
      <point x="247" y="97" type="line"/>
      <point x="776" y="511" type="line"/>
      <point x="736" y="635" type="line"/>
    </contour>
    <contour>
      <point x="201" y="955"/>
      <point x="120" y="905"/>
      <point x="54" y="852" type="curve"/>
      <point x="133" y="726" type="line"/>
      <point x="204" y="777"/>
      <point x="268" y="811"/>
      <point x="324" y="811" type="curve" smooth="yes"/>
      <point x="433" y="810"/>
      <point x="518" y="727"/>
      <point x="694" y="535" type="curve"/>
      <point x="777" y="602" type="line"/>
      <point x="537" y="906"/>
      <point x="430" y="955"/>
      <point x="310" y="955" type="curve" smooth="yes"/>
    </contour>
    <contour>
      <point x="692" y="1156" type="line"/>
      <point x="692" y="1" type="line"/>
      <point x="848" y="1" type="line"/>
      <point x="848" y="1156" type="line"/>
    </contour>
    <contour>
      <point x="752" y="1168" type="move" name="top"/>
    </contour>
    <contour>
      <point x="752" y="28" type="move" name="bottom"/>
    </contour>
  </outline>
</glyph>
<glyph name="lVocalic-deva" format="1">
  <advance width="1305"/>
  <unicode hex="090C"/>
  <outline>
    <contour>
      <point x="728" y="927"/>
      <point x="591" y="791"/>
      <point x="591" y="578" type="curve" smooth="yes"/>
      <point x="591" y="542"/>
      <point x="595" y="505"/>
      <point x="606" y="468" type="curve"/>
      <point x="746" y="485" type="line"/>
      <point x="742" y="511"/>
      <point x="740" y="536"/>
      <point x="740" y="560" type="curve" smooth="yes"/>
      <point x="740" y="697"/>
      <point x="810" y="782"/>
      <point x="919" y="782" type="curve" smooth="yes"/>
      <point x="1034" y="782"/>
      <point x="1089" y="697"/>
      <point x="1089" y="561" type="curve" smooth="yes"/>
      <point x="1089" y="480"/>
      <point x="1078" y="401"/>
      <point x="1024" y="276" type="curve"/>
      <point x="1073" y="332" type="line"/>
      <point x="878" y="268"/>
      <point x="795" y="163"/>
      <point x="795" y="52" type="curve"/>
      <point x="795" y="-62"/>
      <point x="872" y="-195"/>
      <point x="1068" y="-195" type="curve" smooth="yes"/>
      <point x="1177" y="-195"/>
      <point x="1285" y="-156"/>
      <point x="1361" y="-98" type="curve"/>
      <point x="1306" y="10" type="line"/>
      <point x="1239" y="-38"/>
      <point x="1152" y="-71"/>
      <point x="1074" y="-71" type="curve" smooth="yes"/>
      <point x="959" y="-71"/>
      <point x="939" y="1"/>
      <point x="939" y="52" type="curve" smooth="yes"/>
      <point x="939" y="132"/>
      <point x="1015" y="191"/>
      <point x="1164" y="241" type="curve"/>
      <point x="1217" y="367"/>
      <point x="1237" y="472"/>
      <point x="1237" y="553" type="curve" smooth="yes"/>
      <point x="1237" y="790"/>
      <point x="1124" y="927"/>
      <point x="912" y="927" type="curve" smooth="yes"/>
    </contour>
    <contour>
      <point x="-15" y="1262" type="line"/>
      <point x="-15" y="1129" type="line"/>
      <point x="1320" y="1129" type="line"/>
      <point x="1320" y="1262" type="line"/>
    </contour>
    <contour>
      <point x="900" y="1181" type="line"/>
      <point x="900" y="854" type="line"/>
      <point x="1057" y="854" type="line"/>
      <point x="1057" y="1181" type="line"/>
    </contour>
    <contour>
      <point x="178" y="927"/>
      <point x="67" y="811"/>
      <point x="67" y="604" type="curve" smooth="yes"/>
      <point x="67" y="346"/>
      <point x="228" y="131"/>
      <point x="314" y="29" type="curve"/>
      <point x="428" y="123" type="line"/>
      <point x="326" y="254"/>
      <point x="222" y="412"/>
      <point x="222" y="583" type="curve" smooth="yes"/>
      <point x="222" y="732"/>
      <point x="302" y="782"/>
      <point x="397" y="782" type="curve" smooth="yes"/>
      <point x="512" y="782"/>
      <point x="584" y="699"/>
      <point x="649" y="572" type="curve"/>
      <point x="680" y="682" type="line"/>
      <point x="606" y="858"/>
      <point x="504" y="927"/>
      <point x="364" y="927" type="curve" smooth="yes"/>
    </contour>
    <contour>
      <point x="809" y="1168" type="move" name="top"/>
    </contour>
    <contour>
      <point x="717" y="-32" type="move" name="bottom"/>
    </contour>
  </outline>
</glyph>
<glyph name="nga-deva" format="1">
  <advance width="1133"/>
  <unicode hex="0919"/>
  <outline>
    <contour>
      <point x="869" y="1262" type="line"/>
      <point x="869" y="1129" type="line"/>
      <point x="1148" y="1129" type="line"/>
      <point x="1148" y="1262" type="line"/>
    </contour>
    <component base="dda-deva"/>
    <component base="anusvara-deva" xOffset="731" yOffset="-940"/>
    <contour>
      <point x="874" y="1168" type="move" name="top"/>
    </contour>
    <contour>
      <point x="538" y="5" type="move" name="bottom"/>
    </contour>
    <contour>
      <point x="547" y="1168" type="move" name="topcandrabindu"/>
    </contour>
  </outline>
</glyph>
<glyph name="ba-deva" format="1">
  <advance width="1110"/>
  <unicode hex="092C"/>
  <outline>
    <contour>
      <point x="216" y="939"/>
      <point x="79" y="818"/>
      <point x="79" y="573" type="curve" smooth="yes"/>
      <point x="79" y="310"/>
      <point x="233" y="197"/>
      <point x="441" y="197" type="curve" smooth="yes"/>
      <point x="595" y="197"/>
      <point x="733" y="251"/>
      <point x="826" y="370" type="curve"/>
      <point x="798" y="488" type="line"/>
      <point x="696" y="379"/>
      <point x="602" y="323"/>
      <point x="444" y="323" type="curve" smooth="yes"/>
      <point x="294" y="323"/>
      <point x="233" y="397"/>
      <point x="233" y="571" type="curve" smooth="yes"/>
      <point x="233" y="748"/>
      <point x="290" y="807"/>
      <point x="459" y="813" type="curve" smooth="yes"/>
      <point x="571" y="816"/>
      <point x="682" y="798"/>
      <point x="817" y="735" type="curve"/>
      <point x="812" y="851" type="line"/>
      <point x="693" y="914"/>
      <point x="586" y="939"/>
      <point x="466" y="939" type="curve" smooth="yes"/>
    </contour>
    <contour>
      <point x="230" y="779" type="line"/>
      <point x="698" y="306" type="line"/>
      <point x="780" y="395" type="line"/>
      <point x="312" y="869" type="line"/>
    </contour>
    <contour>
      <point x="754" y="1187" type="line"/>
      <point x="754" y="0" type="line"/>
      <point x="910" y="0" type="line"/>
      <point x="910" y="1187" type="line"/>
    </contour>
    <contour>
      <point x="-15" y="1262" type="line"/>
      <point x="-15" y="1129" type="line"/>
      <point x="1125" y="1129" type="line"/>
      <point x="1125" y="1262" type="line"/>
    </contour>
    <contour>
      <point x="202" y="58" type="move" name="nukta"/>
    </contour>
    <contour>
      <point x="832" y="1168" type="move" name="top"/>
    </contour>
    <contour>
      <point x="572" y="1168" type="move" name="topcandrabindu"/>
    </contour>
    <contour>
      <point x="832" y="28" type="move" name="bottom"/>
    </contour>
  </outline>
</glyph>
<glyph name="rra-deva" format="1">
  <advance width="686"/>
  <unicode hex="0931"/>
  <outline>
    <component base="ra-deva"/>
    <component base="anusvara-deva" xOffset="-183" yOffset="-1385"/>
    <contour>
      <point x="427" y="1168" type="move" name="top"/>
    </contour>
    <contour>
      <point x="502" y="28" type="move" name="bottom"/>
    </contour>
  </outline>
</glyph>
<glyph name="sha-deva" format="1">
  <advance width="1320"/>
  <unicode hex="0936"/>
  <outline>
    <contour>
      <point x="192" y="1282"/>
      <point x="87" y="1171"/>
      <point x="90" y="1042" type="curve" smooth="yes"/>
      <point x="92" y="949"/>
      <point x="143" y="863"/>
      <point x="278" y="793" type="curve"/>
      <point x="345" y="885" type="line"/>
      <point x="262" y="940"/>
      <point x="236" y="981"/>
      <point x="236" y="1032" type="curve" smooth="yes"/>
      <point x="236" y="1108"/>
      <point x="296" y="1152"/>
      <point x="401" y="1152" type="curve" smooth="yes"/>
      <point x="540" y="1152"/>
      <point x="589" y="1061"/>
      <point x="589" y="959" type="curve" smooth="yes"/>
      <point x="589" y="769"/>
      <point x="439" y="641"/>
      <point x="185" y="540" type="curve"/>
      <point x="292" y="448" type="line"/>
      <point x="561" y="551"/>
      <point x="743" y="715"/>
      <point x="743" y="963" type="curve" smooth="yes"/>
      <point x="743" y="1126"/>
      <point x="642" y="1282"/>
      <point x="397" y="1282" type="curve" smooth="yes"/>
    </contour>
    <contour>
      <point x="208" y="526" type="line"/>
      <point x="627" y="-18" type="line"/>
      <point x="747" y="83" type="line"/>
      <point x="314" y="570" type="line"/>
    </contour>
    <contour>
      <point x="117" y="692" type="line"/>
      <point x="82" y="629"/>
      <point x="72" y="575"/>
      <point x="71" y="540" type="curve" smooth="yes"/>
      <point x="70" y="459"/>
      <point x="131" y="423"/>
      <point x="187" y="423" type="curve" smooth="yes"/>
      <point x="238" y="423"/>
      <point x="286" y="437"/>
      <point x="377" y="483" type="curve"/>
      <point x="364" y="516" type="line"/>
      <point x="215" y="692" type="line"/>
    </contour>
    <contour>
      <point x="963" y="1194" type="line"/>
      <point x="963" y="0" type="line"/>
      <point x="1120" y="0" type="line"/>
      <point x="1120" y="1194" type="line"/>
    </contour>
    <contour>
      <point x="798" y="1262" type="line"/>
      <point x="798" y="1129" type="line"/>
      <point x="1335" y="1129" type="line"/>
      <point x="1335" y="1262" type="line"/>
    </contour>
    <contour>
      <point x="267" y="58" type="move" name="nukta"/>
    </contour>
    <contour>
      <point x="1042" y="1168" type="move" name="top"/>
    </contour>
    <contour>
      <point x="767" y="1168" type="move" name="topcandrabindu"/>
    </contour>
    <contour>
      <point x="1042" y="28" type="move" name="bottom"/>
    </contour>
  </outline>
</glyph>
<glyph name="aaMatra-deva" format="1">
  <advance width="557"/>
  <unicode hex="093E"/>
  <outline>
    <contour>
      <point x="200" y="1199" type="line"/>
      <point x="200" y="0" type="line"/>
      <point x="357" y="0" type="line"/>
      <point x="357" y="1199" type="line"/>
    </contour>
    <contour>
      <point x="-15" y="1262" type="line"/>
      <point x="-15" y="1129" type="line"/>
      <point x="572" y="1129" type="line"/>
      <point x="572" y="1262" type="line"/>
    </contour>
    <contour>
      <point x="279" y="1168" type="move" name="top"/>
    </contour>
    <contour>
      <point x="279" y="28" type="move" name="bottom"/>
    </contour>
  </outline>
</glyph>
<glyph name="acute-deva" format="1">
  <advance width="600"/>
  <unicode hex="0954"/>
  <outline>
    <contour>
      <point x="45" y="1785" type="line"/>
      <point x="-343" y="1401" type="line"/>
      <point x="-267" y="1320" type="line"/>
      <point x="143" y="1700" type="line"/>
    </contour>
  </outline>
</glyph>
<glyph name="qa-deva" format="1">
  <advance width="1505"/>
  <unicode hex="0958"/>
  <outline>
    <component base="ka-deva"/>
    <component base="nukta-deva" xOffset="-6" yOffset="30"/>
    <contour>
      <point x="390" y="584" type="move" name="top"/>
    </contour>
    <contour>
      <point x="391" y="14" type="move" name="bottom"/>
    </contour>
    <contour>
      <point x="787" y="1168" type="move" name="topcandrabindu"/>
    </contour>
  </outline>
</glyph>
<glyph name="ghha-deva" format="1">
  <advance width="1141"/>
  <unicode hex="095A"/>
  <outline>
    <component base="ga-deva"/>
    <component base="nukta-deva" xOffset="49" yOffset="87"/>
    <contour>
      <point x="430" y="584" type="move" name="top"/>
    </contour>
    <contour>
      <point x="434" y="14" type="move" name="bottom"/>
    </contour>
    <contour>
      <point x="299" y="584" type="move" name="topcandrabindu"/>
    </contour>
  </outline>
</glyph>
<glyph name="fa-deva" format="1">
  <advance width="1580"/>
  <unicode hex="095E"/>
  <outline>
    <component base="pha-deva"/>
    <component base="nukta-deva" xOffset="88" yOffset="60"/>
    <contour>
      <point x="409" y="584" type="move" name="top"/>
    </contour>
    <contour>
      <point x="411" y="14" type="move" name="bottom"/>
    </contour>
  </outline>
</glyph>
<glyph name="llVocalic-deva" format="1">
  <advance width="1305"/>
  <unicode hex="0961"/>
  <outline>
    <contour>
      <point x="973" y="152"/>
      <point x="897" y="26"/>
      <point x="897" y="-80" type="curve" smooth="yes"/>
      <point x="897" y="-215"/>
      <point x="1000" y="-317"/>
      <point x="1170" y="-315" type="curve" smooth="yes"/>
      <point x="1280" y="-313"/>
      <point x="1387" y="-276"/>
      <point x="1463" y="-218" type="curve"/>
      <point x="1408" y="-110" type="line"/>
      <point x="1341" y="-158"/>
      <point x="1253" y="-190"/>
      <point x="1176" y="-191" type="curve" smooth="yes"/>
      <point x="1083" y="-192"/>
      <point x="1042" y="-153"/>
      <point x="1042" y="-82" type="curve" smooth="yes"/>
      <point x="1042" y="-8"/>
      <point x="1104" y="37"/>
      <point x="1265" y="54" type="curve"/>
      <point x="1250" y="169" type="line"/>
    </contour>
    <contour>
      <point x="-15" y="1262" type="line"/>
      <point x="-15" y="1129" type="line"/>
      <point x="1320" y="1129" type="line"/>
      <point x="1320" y="1262" type="line"/>
    </contour>
    <contour>
      <point x="900" y="1181" type="line"/>
      <point x="900" y="854" type="line"/>
      <point x="1057" y="854" type="line"/>
      <point x="1057" y="1181" type="line"/>
    </contour>
    <contour>
      <point x="728" y="927"/>
      <point x="591" y="791"/>
      <point x="591" y="578" type="curve" smooth="yes"/>
      <point x="591" y="542"/>
      <point x="595" y="505"/>
      <point x="606" y="468" type="curve"/>
      <point x="746" y="485" type="line"/>
      <point x="742" y="511"/>
      <point x="740" y="536"/>
      <point x="740" y="560" type="curve" smooth="yes"/>
      <point x="740" y="697"/>
      <point x="810" y="782"/>
      <point x="919" y="782" type="curve" smooth="yes"/>
      <point x="1034" y="782"/>
      <point x="1089" y="697"/>
      <point x="1089" y="561" type="curve" smooth="yes"/>
      <point x="1089" y="534"/>
      <point x="1087" y="511"/>
      <point x="1083" y="484" type="curve"/>
      <point x="1114" y="524" type="line"/>
      <point x="973" y="515"/>
      <point x="821" y="444"/>
      <point x="822" y="302" type="curve" smooth="yes"/>
      <point x="822" y="217"/>
      <point x="863" y="101"/>
      <point x="1118" y="68" type="curve"/>
      <point x="1184" y="130" type="line"/>
      <point x="1028" y="153"/>
      <point x="973" y="214"/>
      <point x="973" y="283" type="curve" smooth="yes"/>
      <point x="973" y="369"/>
      <point x="1060" y="406"/>
      <point x="1219" y="416" type="curve"/>
      <point x="1230" y="469"/>
      <point x="1235" y="523"/>
      <point x="1235" y="563" type="curve" smooth="yes"/>
      <point x="1235" y="790"/>
      <point x="1124" y="927"/>
      <point x="912" y="927" type="curve" smooth="yes"/>
    </contour>
    <contour>
      <point x="178" y="927"/>
      <point x="67" y="811"/>
      <point x="67" y="604" type="curve" smooth="yes"/>
      <point x="67" y="346"/>
      <point x="228" y="131"/>
      <point x="314" y="29" type="curve"/>
      <point x="428" y="123" type="line"/>
      <point x="326" y="254"/>
      <point x="222" y="412"/>
      <point x="222" y="583" type="curve" smooth="yes"/>
      <point x="222" y="732"/>
      <point x="302" y="782"/>
      <point x="397" y="782" type="curve" smooth="yes"/>
      <point x="512" y="782"/>
      <point x="584" y="699"/>
      <point x="649" y="572" type="curve"/>
      <point x="680" y="682" type="line"/>
      <point x="606" y="858"/>
      <point x="504" y="927"/>
      <point x="364" y="927" type="curve" smooth="yes"/>
    </contour>
    <contour>
      <point x="809" y="1168" type="move" name="top"/>
    </contour>
    <contour>
      <point x="696" y="30" type="move" name="bottom"/>
    </contour>
  </outline>
</glyph>
<glyph name="danda-deva" format="1">
  <advance width="600"/>
  <unicode hex="0964"/>
  <outline>
    <contour>
      <point x="231" y="1262" type="line"/>
      <point x="231" y="0" type="line"/>
      <point x="388" y="0" type="line"/>
      <point x="388" y="1262" type="line"/>
    </contour>
  </outline>
</glyph>
<glyph name="three-deva" format="1">
  <advance width="894"/>
  <unicode hex="0969"/>
  <outline>
    <contour>
      <point x="799" y="588"/>
      <point x="732" y="696"/>
      <point x="580" y="750" type="curve"/>
      <point x="586" y="719" type="line"/>
      <point x="686" y="778"/>
      <point x="737" y="871"/>
      <point x="737" y="984" type="curve" smooth="yes"/>
      <point x="737" y="1180"/>
      <point x="597" y="1284"/>
      <point x="403" y="1284" type="curve" smooth="yes"/>
      <point x="305" y="1284"/>
      <point x="193" y="1263"/>
      <point x="101" y="1222" type="curve"/>
      <point x="147" y="1094" type="line"/>
      <point x="221" y="1125"/>
      <point x="303" y="1145"/>
      <point x="387" y="1145" type="curve" smooth="yes"/>
      <point x="505" y="1145"/>
      <point x="583" y="1099"/>
      <point x="583" y="988" type="curve" smooth="yes"/>
      <point x="583" y="889"/>
      <point x="521" y="790"/>
      <point x="247" y="788" type="curve"/>
      <point x="257" y="658" type="line"/>
      <point x="272" y="657"/>
      <point x="285" y="655"/>
      <point x="312" y="655" type="curve" smooth="yes"/>
      <point x="396" y="655"/>
      <point x="468" y="668"/>
      <point x="528" y="691" type="curve"/>
      <point x="471" y="698" type="line"/>
      <point x="585" y="647"/>
      <point x="643" y="575"/>
      <point x="643" y="470" type="curve" smooth="yes"/>
      <point x="643" y="342"/>
      <point x="525" y="271"/>
      <point x="374" y="271" type="curve" smooth="yes"/>
      <point x="337" y="271"/>
      <point x="303" y="274"/>
      <point x="275" y="280" type="curve"/>
      <point x="330" y="241" type="line"/>
      <point x="186" y="416" type="line"/>
      <point x="90" y="416" type="line"/>
      <point x="56" y="355"/>
      <point x="44" y="314"/>
      <point x="45" y="281" type="curve" smooth="yes"/>
      <point x="46" y="200"/>
      <point x="117" y="154"/>
      <point x="259" y="139" type="curve"/>
      <point x="477" y="-159" type="line"/>
      <point x="587" y="-65" type="line"/>
      <point x="364" y="167" type="line"/>
      <point x="360" y="136" type="line"/>
      <point x="384" y="136"/>
      <point x="399" y="135"/>
      <point x="432" y="138" type="curve" smooth="yes"/>
      <point x="624" y="151"/>
      <point x="799" y="257"/>
      <point x="799" y="451" type="curve" smooth="yes"/>
    </contour>
  </outline>
</glyph>
<glyph name="abbreviation-deva" format="1">
  <advance width="966"/>
  <unicode hex="0970"/>
  <outline>
    <contour>
      <point x="363" y="379"/>
      <point x="297" y="430"/>
      <point x="298" y="566" type="curve" smooth="yes"/>
      <point x="298" y="715"/>
      <point x="377" y="762"/>
      <point x="485" y="762" type="curve" smooth="yes"/>
      <point x="601" y="762"/>
      <point x="668" y="709"/>
      <point x="668" y="575" type="curve" smooth="yes"/>
      <point x="668" y="426"/>
      <point x="587" y="379"/>
      <point x="479" y="379" type="curve"/>
    </contour>
    <contour>
      <point x="328" y="889"/>
      <point x="150" y="818"/>
      <point x="150" y="579" type="curve" smooth="yes"/>
      <point x="150" y="385"/>
      <point x="269" y="251"/>
      <point x="486" y="251" type="curve" smooth="yes"/>
      <point x="638" y="251"/>
      <point x="815" y="322"/>
      <point x="815" y="561" type="curve" smooth="yes"/>
      <point x="815" y="758"/>
      <point x="695" y="889"/>
      <point x="480" y="889" type="curve" smooth="yes"/>
    </contour>
  </outline>
</glyph>
<glyph name="gga-deva" format="1">
  <advance width="1140"/>
  <unicode hex="097B"/>
  <outline>
    <contour>
      <point x="81" y="59" type="line"/>
      <point x="81" y="-68" type="line"/>
      <point x="940" y="-68" type="line"/>
      <point x="940" y="59" type="line"/>
    </contour>
    <component base="ga-deva"/>
  </outline>
</glyph>
<glyph name="dottedCircle" format="1">
  <advance width="1203"/>
  <unicode hex="25CC"/>
  <outline>
    <contour>
      <point x="311" y="850"/>
      <point x="339" y="878"/>
      <point x="339" y="914" type="curve" smooth="yes"/>
      <point x="339" y="948"/>
      <point x="311" y="977"/>
      <point x="276" y="977" type="curve" smooth="yes"/>
      <point x="241" y="977"/>
      <point x="212" y="948"/>
      <point x="212" y="914" type="curve" smooth="yes"/>
      <point x="212" y="878"/>
      <point x="241" y="850"/>
      <point x="276" y="850" type="curve" smooth="yes"/>
    </contour>
    <contour>
      <point x="459" y="951"/>
      <point x="488" y="979"/>
      <point x="488" y="1015" type="curve" smooth="yes"/>
      <point x="488" y="1049"/>
      <point x="459" y="1078"/>
      <point x="425" y="1078" type="curve" smooth="yes"/>
      <point x="389" y="1078"/>
      <point x="361" y="1049"/>
      <point x="361" y="1015" type="curve" smooth="yes"/>
      <point x="361" y="979"/>
      <point x="389" y="951"/>
      <point x="425" y="951" type="curve" smooth="yes"/>
    </contour>
    <contour>
      <point x="211" y="702"/>
      <point x="239" y="731"/>
      <point x="239" y="766" type="curve" smooth="yes"/>
      <point x="239" y="801"/>
      <point x="211" y="829"/>
      <point x="176" y="829" type="curve" smooth="yes"/>
      <point x="141" y="829"/>
      <point x="112" y="801"/>
      <point x="112" y="766" type="curve" smooth="yes"/>
      <point x="112" y="731"/>
      <point x="141" y="702"/>
      <point x="176" y="702" type="curve" smooth="yes"/>
    </contour>
    <contour>
      <point x="176" y="526"/>
      <point x="205" y="555"/>
      <point x="205" y="590" type="curve" smooth="yes"/>
      <point x="205" y="624"/>
      <point x="176" y="653"/>
      <point x="142" y="653" type="curve" smooth="yes"/>
      <point x="107" y="653"/>
      <point x="78" y="624"/>
      <point x="78" y="590" type="curve" smooth="yes"/>
      <point x="78" y="555"/>
      <point x="107" y="526"/>
      <point x="142" y="526" type="curve" smooth="yes"/>
    </contour>
    <contour>
      <point x="212" y="350"/>
      <point x="240" y="378"/>
      <point x="240" y="414" type="curve" smooth="yes"/>
      <point x="240" y="448"/>
      <point x="212" y="477"/>
      <point x="177" y="477" type="curve" smooth="yes"/>
      <point x="142" y="477"/>
      <point x="113" y="448"/>
      <point x="113" y="414" type="curve" smooth="yes"/>
      <point x="113" y="378"/>
      <point x="142" y="350"/>
      <point x="177" y="350" type="curve" smooth="yes"/>
    </contour>
    <contour>
      <point x="311" y="201"/>
      <point x="339" y="230"/>
      <point x="339" y="265" type="curve" smooth="yes"/>
      <point x="339" y="300"/>
      <point x="311" y="328"/>
      <point x="276" y="328" type="curve" smooth="yes"/>
      <point x="241" y="328"/>
      <point x="212" y="300"/>
      <point x="212" y="265" type="curve" smooth="yes"/>
      <point x="212" y="230"/>
      <point x="241" y="201"/>
      <point x="276" y="201" type="curve" smooth="yes"/>
    </contour>
    <contour>
      <point x="460" y="100"/>
      <point x="489" y="129"/>
      <point x="489" y="164" type="curve" smooth="yes"/>
      <point x="489" y="199"/>
      <point x="460" y="227"/>
      <point x="426" y="227" type="curve" smooth="yes"/>
      <point x="390" y="227"/>
      <point x="362" y="199"/>
      <point x="362" y="164" type="curve" smooth="yes"/>
      <point x="362" y="129"/>
      <point x="390" y="100"/>
      <point x="426" y="100" type="curve" smooth="yes"/>
    </contour>
    <contour>
      <point x="636" y="66"/>
      <point x="665" y="95"/>
      <point x="665" y="130" type="curve" smooth="yes"/>
      <point x="665" y="164"/>
      <point x="636" y="193"/>
      <point x="602" y="193" type="curve" smooth="yes"/>
      <point x="567" y="193"/>
      <point x="538" y="164"/>
      <point x="538" y="130" type="curve" smooth="yes"/>
      <point x="538" y="95"/>
      <point x="567" y="66"/>
      <point x="602" y="66" type="curve" smooth="yes"/>
    </contour>
    <contour>
      <point x="812" y="102"/>
      <point x="840" y="131"/>
      <point x="840" y="166" type="curve" smooth="yes"/>
      <point x="840" y="201"/>
      <point x="812" y="229"/>
      <point x="777" y="229" type="curve" smooth="yes"/>
      <point x="742" y="229"/>
      <point x="713" y="201"/>
      <point x="713" y="166" type="curve" smooth="yes"/>
      <point x="713" y="131"/>
      <point x="742" y="102"/>
      <point x="777" y="102" type="curve" smooth="yes"/>
    </contour>
    <contour>
      <point x="960" y="201"/>
      <point x="989" y="230"/>
      <point x="989" y="265" type="curve" smooth="yes"/>
      <point x="989" y="300"/>
      <point x="960" y="328"/>
      <point x="926" y="328" type="curve" smooth="yes"/>
      <point x="890" y="328"/>
      <point x="862" y="300"/>
      <point x="862" y="265" type="curve" smooth="yes"/>
      <point x="862" y="230"/>
      <point x="890" y="201"/>
      <point x="926" y="201" type="curve" smooth="yes"/>
    </contour>
    <contour>
      <point x="1059" y="350"/>
      <point x="1088" y="378"/>
      <point x="1088" y="414" type="curve" smooth="yes"/>
      <point x="1088" y="448"/>
      <point x="1059" y="477"/>
      <point x="1025" y="477" type="curve" smooth="yes"/>
      <point x="989" y="477"/>
      <point x="961" y="448"/>
      <point x="961" y="414" type="curve" smooth="yes"/>
      <point x="961" y="378"/>
      <point x="989" y="350"/>
      <point x="1025" y="350" type="curve" smooth="yes"/>
    </contour>
    <contour>
      <point x="1095" y="526"/>
      <point x="1124" y="555"/>
      <point x="1124" y="590" type="curve" smooth="yes"/>
      <point x="1124" y="624"/>
      <point x="1095" y="653"/>
      <point x="1061" y="653" type="curve" smooth="yes"/>
      <point x="1026" y="653"/>
      <point x="997" y="624"/>
      <point x="997" y="590" type="curve" smooth="yes"/>
      <point x="997" y="555"/>
      <point x="1026" y="526"/>
      <point x="1061" y="526" type="curve" smooth="yes"/>
    </contour>
    <contour>
      <point x="1060" y="701"/>
      <point x="1089" y="730"/>
      <point x="1089" y="765" type="curve" smooth="yes"/>
      <point x="1089" y="800"/>
      <point x="1060" y="828"/>
      <point x="1026" y="828" type="curve" smooth="yes"/>
      <point x="990" y="828"/>
      <point x="962" y="800"/>
      <point x="962" y="765" type="curve" smooth="yes"/>
      <point x="962" y="730"/>
      <point x="990" y="701"/>
      <point x="1026" y="701" type="curve" smooth="yes"/>
    </contour>
    <contour>
      <point x="960" y="851"/>
      <point x="989" y="879"/>
      <point x="989" y="915" type="curve" smooth="yes"/>
      <point x="989" y="949"/>
      <point x="960" y="978"/>
      <point x="926" y="978" type="curve" smooth="yes"/>
      <point x="890" y="978"/>
      <point x="862" y="949"/>
      <point x="862" y="915" type="curve" smooth="yes"/>
      <point x="862" y="879"/>
      <point x="890" y="851"/>
      <point x="926" y="851" type="curve" smooth="yes"/>
    </contour>
    <contour>
      <point x="812" y="951"/>
      <point x="840" y="979"/>
      <point x="840" y="1015" type="curve" smooth="yes"/>
      <point x="840" y="1049"/>
      <point x="812" y="1078"/>
      <point x="777" y="1078" type="curve" smooth="yes"/>
      <point x="742" y="1078"/>
      <point x="713" y="1049"/>
      <point x="713" y="1015" type="curve" smooth="yes"/>
      <point x="713" y="979"/>
      <point x="742" y="951"/>
      <point x="777" y="951" type="curve" smooth="yes"/>
    </contour>
    <contour>
      <point x="636" y="985"/>
      <point x="665" y="1014"/>
      <point x="665" y="1049" type="curve" smooth="yes"/>
      <point x="665" y="1083"/>
      <point x="636" y="1112"/>
      <point x="602" y="1112" type="curve" smooth="yes"/>
      <point x="567" y="1112"/>
      <point x="538" y="1083"/>
      <point x="538" y="1049" type="curve" smooth="yes"/>
      <point x="538" y="1014"/>
      <point x="567" y="985"/>
      <point x="602" y="985" type="curve" smooth="yes"/>
    </contour>
  </outline>
</glyph>
<glyph name="ch_la-deva.loclMAR" format="1">
  <advance width="1309"/>
  <outline>
    <contour>
      <point x="778" y="1035"/>
      <point x="697" y="938"/>
      <point x="697" y="807" type="curve" smooth="yes"/>
      <point x="698" y="722"/>
      <point x="734" y="643"/>
      <point x="803" y="587" type="curve"/>
      <point x="890" y="657" type="line"/>
      <point x="854" y="703"/>
      <point x="839" y="746"/>
      <point x="839" y="794" type="curve" smooth="yes"/>
      <point x="839" y="866"/>
      <point x="883" y="914"/>
      <point x="958" y="914" type="curve" smooth="yes"/>
      <point x="1039" y="914"/>
      <point x="1094" y="861"/>
      <point x="1095" y="743" type="curve" smooth="yes"/>
      <point x="1096" y="552"/>
      <point x="853" y="379"/>
      <point x="547" y="379" type="curve" smooth="yes"/>
      <point x="334" y="379"/>
      <point x="254" y="456"/>
      <point x="254" y="557" type="curve" smooth="yes"/>
      <point x="254" y="698"/>
      <point x="397" y="717"/>
      <point x="552" y="721" type="curve"/>
      <point x="548" y="851" type="line"/>
      <point x="533" y="852"/>
      <point x="518" y="852"/>
      <point x="505" y="852" type="curve" smooth="yes"/>
      <point x="245" y="846"/>
      <point x="92" y="731"/>
      <point x="92" y="555" type="curve" smooth="yes"/>
      <point x="92" y="390"/>
      <point x="228" y="240"/>
      <point x="550" y="240" type="curve" smooth="yes"/>
      <point x="933" y="240"/>
      <point x="1241" y="474"/>
      <point x="1241" y="746" type="curve" smooth="yes"/>
      <point x="1241" y="947"/>
      <point x="1111" y="1038"/>
      <point x="959" y="1037" type="curve" smooth="yes"/>
    </contour>
    <contour>
      <point x="-15" y="1262" type="line"/>
      <point x="-15" y="1129" type="line"/>
      <point x="1324" y="1129" type="line"/>
      <point x="1324" y="1262" type="line"/>
    </contour>
    <contour>
      <point x="883" y="1225" type="line"/>
      <point x="883" y="966" type="line"/>
      <point x="1036" y="966" type="line"/>
      <point x="1036" y="1225" type="line"/>
    </contour>
    <contour>
      <point x="284" y="1228"/>
      <point x="85" y="1167"/>
      <point x="85" y="996" type="curve" smooth="yes"/>
      <point x="85" y="903"/>
      <point x="142" y="791"/>
      <point x="354" y="718" type="curve"/>
      <point x="428" y="783" type="line"/>
      <point x="327" y="812"/>
      <point x="243" y="892"/>
      <point x="243" y="976" type="curve" smooth="yes"/>
      <point x="243" y="1082"/>
      <point x="331" y="1135"/>
      <point x="466" y="1138" type="curve"/>
      <point x="482" y="1230" type="line"/>
    </contour>
    <contour>
      <point x="883" y="413" type="line"/>
      <point x="883" y="84" type="line"/>
      <point x="1036" y="84" type="line"/>
      <point x="1036" y="413" type="line"/>
    </contour>
    <component base="add" xOffset="97" yOffset="-40"/>
    <contour>
      <point x="960" y="1168" type="move" name="top"/>
    </contour>
    <contour>
      <point x="893" y="-526" type="move" name="bottom"/>
    </contour>
    <contour>
      <point x="674" y="1168" type="move" name="topcandrabindu"/>
    </contour>
  </outline>
</glyph>
<glyph name="d_ba-deva" format="1">
  <advance width="1008"/>
  <outline>
    <contour>
      <point x="-15" y="1262" type="line"/>
      <point x="-15" y="1129" type="line"/>
      <point x="1023" y="1129" type="line"/>
      <point x="1023" y="1262" type="line"/>
    </contour>
    <contour>
      <point x="633" y="1163" type="line"/>
      <point x="633" y="856" type="line"/>
      <point x="721" y="880" type="line"/>
      <point x="653" y="897"/>
      <point x="592" y="904"/>
      <point x="540" y="904" type="curve" smooth="yes"/>
      <point x="197" y="904"/>
      <point x="70" y="748"/>
      <point x="70" y="505" type="curve" smooth="yes"/>
      <point x="70" y="256"/>
      <point x="225" y="88"/>
      <point x="534" y="88" type="curve" smooth="yes"/>
      <point x="646" y="88"/>
      <point x="737" y="106"/>
      <point x="816" y="159" type="curve" smooth="yes"/>
      <point x="879" y="201"/>
      <point x="912" y="268"/>
      <point x="912" y="324" type="curve" smooth="yes"/>
      <point x="912" y="411"/>
      <point x="831" y="480"/>
      <point x="723" y="511" type="curve"/>
      <point x="632" y="435" type="line"/>
      <point x="731" y="236" type="line"/>
      <point x="783" y="297" type="line"/>
      <point x="687" y="236"/>
      <point x="618" y="216"/>
      <point x="523" y="216" type="curve" smooth="yes"/>
      <point x="345" y="216"/>
      <point x="233" y="286"/>
      <point x="233" y="489" type="curve" smooth="yes"/>
      <point x="233" y="697"/>
      <point x="339" y="764"/>
      <point x="566" y="764" type="curve" smooth="yes"/>
      <point x="670" y="764"/>
      <point x="750" y="759"/>
      <point x="790" y="756" type="curve"/>
      <point x="790" y="1163" type="line"/>
    </contour>
    <contour>
      <point x="723" y="-46"/>
      <point x="615" y="-270"/>
      <point x="405" y="-270" type="curve" smooth="yes"/>
      <point x="317" y="-270"/>
      <point x="252" y="-219"/>
      <point x="252" y="-134" type="curve" smooth="yes"/>
      <point x="252" y="-8"/>
      <point x="375" y="59"/>
      <point x="459" y="108" type="curve"/>
      <point x="408" y="206" type="line"/>
      <point x="324" y="162"/>
      <point x="108" y="72"/>
      <point x="108" y="-128" type="curve" smooth="yes"/>
      <point x="108" y="-293"/>
      <point x="236" y="-394"/>
      <point x="415" y="-394" type="curve" smooth="yes"/>
      <point x="750" y="-394"/>
      <point x="851" y="-37"/>
      <point x="842" y="211" type="curve"/>
      <point x="748" y="267" type="line"/>
    </contour>
    <contour>
      <point x="282" y="53" type="line"/>
      <point x="637" y="-303" type="line"/>
      <point x="714" y="-219" type="line"/>
      <point x="359" y="137" type="line"/>
    </contour>
    <contour>
      <point x="758" y="214" type="line"/>
      <point x="938" y="-129" type="line"/>
      <point x="1053" y="-54" type="line"/>
      <point x="842" y="256" type="line"/>
    </contour>
    <contour>
      <point x="712" y="1168" type="move" name="top"/>
    </contour>
    <contour>
      <point x="778" y="-190" type="move" name="bottom"/>
    </contour>
  </outline>
</glyph>
<glyph name="d_dha-deva" format="1">
  <advance width="1291"/>
  <outline>
    <contour>
      <point x="-15" y="1234" type="line"/>
      <point x="-15" y="1102" type="line"/>
      <point x="1316" y="1102" type="line"/>
      <point x="1316" y="1234" type="line"/>
    </contour>
    <contour>
      <point x="911" y="1135" type="line"/>
      <point x="911" y="829" type="line"/>
      <point x="999" y="852" type="line"/>
      <point x="931" y="870"/>
      <point x="870" y="876"/>
      <point x="818" y="876" type="curve" smooth="yes"/>
      <point x="475" y="876"/>
      <point x="348" y="720"/>
      <point x="348" y="477" type="curve" smooth="yes"/>
      <point x="348" y="228"/>
      <point x="503" y="56"/>
      <point x="812" y="56" type="curve" smooth="yes"/>
      <point x="924" y="56"/>
      <point x="1015" y="79"/>
      <point x="1094" y="131" type="curve" smooth="yes"/>
      <point x="1157" y="173"/>
      <point x="1190" y="240"/>
      <point x="1190" y="297" type="curve" smooth="yes"/>
      <point x="1190" y="384"/>
      <point x="1109" y="452"/>
      <point x="1001" y="483" type="curve"/>
      <point x="910" y="407" type="line"/>
      <point x="1009" y="209" type="line"/>
      <point x="1061" y="270" type="line"/>
      <point x="965" y="208"/>
      <point x="896" y="189"/>
      <point x="801" y="189" type="curve" smooth="yes"/>
      <point x="623" y="189"/>
      <point x="511" y="259"/>
      <point x="511" y="462" type="curve" smooth="yes"/>
      <point x="511" y="670"/>
      <point x="617" y="737"/>
      <point x="844" y="737" type="curve" smooth="yes"/>
      <point x="948" y="737"/>
      <point x="1028" y="731"/>
      <point x="1068" y="729" type="curve"/>
      <point x="1068" y="1135" type="line"/>
    </contour>
    <contour>
      <point x="150" y="383"/>
      <point x="69" y="281"/>
      <point x="67" y="165" type="curve" smooth="yes"/>
      <point x="64" y="21"/>
      <point x="157" y="-70"/>
      <point x="314" y="-92" type="curve" smooth="yes"/>
      <point x="358" y="-99"/>
      <point x="408" y="-98"/>
      <point x="463" y="-93" type="curve"/>
      <point x="509" y="-2" type="line"/>
      <point x="443" y="-1"/>
      <point x="382" y="6"/>
      <point x="336" y="19" type="curve" smooth="yes"/>
      <point x="257" y="42"/>
      <point x="206" y="96"/>
      <point x="205" y="171" type="curve" smooth="yes"/>
      <point x="203" y="251"/>
      <point x="243" y="300"/>
      <point x="325" y="338" type="curve"/>
      <point x="283" y="422" type="line"/>
    </contour>
    <contour>
      <point x="993" y="-71"/>
      <point x="887" y="-287"/>
      <point x="687" y="-287" type="curve" smooth="yes"/>
      <point x="606" y="-287"/>
      <point x="544" y="-238"/>
      <point x="544" y="-157" type="curve" smooth="yes"/>
      <point x="544" y="-36"/>
      <point x="661" y="28"/>
      <point x="742" y="74" type="curve"/>
      <point x="691" y="175" type="line"/>
      <point x="608" y="132"/>
      <point x="395" y="42"/>
      <point x="395" y="-155" type="curve" smooth="yes"/>
      <point x="395" y="-318"/>
      <point x="521" y="-417"/>
      <point x="694" y="-417" type="curve" smooth="yes"/>
      <point x="1028" y="-417"/>
      <point x="1127" y="-66"/>
      <point x="1118" y="179" type="curve"/>
      <point x="1019" y="227" type="line"/>
    </contour>
    <contour>
      <point x="1039" y="186" type="line"/>
      <point x="1219" y="-157" type="line"/>
      <point x="1334" y="-82" type="line"/>
      <point x="1123" y="229" type="line"/>
    </contour>
    <contour>
      <point x="989" y="1140" type="move" name="top"/>
    </contour>
    <contour>
      <point x="762" y="-356" type="move" name="bottom"/>
    </contour>
  </outline>
</glyph>
<glyph name="d_gha-deva" format="1">
  <advance width="1291"/>
  <outline>
    <contour>
      <point x="-15" y="1262" type="line"/>
      <point x="-15" y="1129" type="line"/>
      <point x="1316" y="1129" type="line"/>
      <point x="1316" y="1262" type="line"/>
    </contour>
    <contour>
      <point x="911" y="1163" type="line"/>
      <point x="911" y="856" type="line"/>
      <point x="999" y="880" type="line"/>
      <point x="931" y="897"/>
      <point x="870" y="904"/>
      <point x="818" y="904" type="curve" smooth="yes"/>
      <point x="475" y="904"/>
      <point x="348" y="748"/>
      <point x="348" y="505" type="curve" smooth="yes"/>
      <point x="348" y="256"/>
      <point x="503" y="83"/>
      <point x="812" y="83" type="curve" smooth="yes"/>
      <point x="924" y="83"/>
      <point x="1015" y="106"/>
      <point x="1094" y="159" type="curve" smooth="yes"/>
      <point x="1157" y="201"/>
      <point x="1190" y="268"/>
      <point x="1190" y="324" type="curve" smooth="yes"/>
      <point x="1190" y="411"/>
      <point x="1109" y="480"/>
      <point x="1001" y="511" type="curve"/>
      <point x="910" y="435" type="line"/>
      <point x="1009" y="236" type="line"/>
      <point x="1061" y="297" type="line"/>
      <point x="965" y="236"/>
      <point x="896" y="216"/>
      <point x="801" y="216" type="curve" smooth="yes"/>
      <point x="623" y="216"/>
      <point x="511" y="286"/>
      <point x="511" y="489" type="curve" smooth="yes"/>
      <point x="511" y="697"/>
      <point x="617" y="764"/>
      <point x="844" y="764" type="curve" smooth="yes"/>
      <point x="948" y="764"/>
      <point x="1028" y="759"/>
      <point x="1068" y="756" type="curve"/>
      <point x="1068" y="1163" type="line"/>
    </contour>
    <contour>
      <point x="206" y="465"/>
      <point x="68" y="346"/>
      <point x="67" y="193" type="curve" smooth="yes"/>
      <point x="65" y="49"/>
      <point x="157" y="-42"/>
      <point x="314" y="-64" type="curve" smooth="yes"/>
      <point x="358" y="-71"/>
      <point x="408" y="-71"/>
      <point x="463" y="-66" type="curve"/>
      <point x="509" y="26" type="line"/>
      <point x="443" y="27"/>
      <point x="382" y="33"/>
      <point x="336" y="47" type="curve" smooth="yes"/>
      <point x="257" y="70"/>
      <point x="214" y="116"/>
      <point x="213" y="180" type="curve" smooth="yes"/>
      <point x="212" y="270"/>
      <point x="280" y="335"/>
      <point x="402" y="374" type="curve"/>
      <point x="373" y="497" type="line"/>
    </contour>
    <contour>
      <point x="993" y="-44"/>
      <point x="887" y="-260"/>
      <point x="687" y="-260" type="curve" smooth="yes"/>
      <point x="606" y="-260"/>
      <point x="544" y="-211"/>
      <point x="544" y="-129" type="curve" smooth="yes"/>
      <point x="544" y="-8"/>
      <point x="661" y="55"/>
      <point x="742" y="102" type="curve"/>
      <point x="691" y="202" type="line"/>
      <point x="608" y="159"/>
      <point x="395" y="70"/>
      <point x="395" y="-127" type="curve" smooth="yes"/>
      <point x="395" y="-290"/>
      <point x="521" y="-390"/>
      <point x="694" y="-390" type="curve" smooth="yes"/>
      <point x="1028" y="-390"/>
      <point x="1127" y="-38"/>
      <point x="1118" y="207" type="curve"/>
      <point x="1019" y="255" type="line"/>
    </contour>
    <contour>
      <point x="1039" y="214" type="line"/>
      <point x="1219" y="-129" type="line"/>
      <point x="1334" y="-54" type="line"/>
      <point x="1123" y="256" type="line"/>
    </contour>
    <contour>
      <point x="989" y="1168" type="move" name="top"/>
    </contour>
    <contour>
      <point x="762" y="-328" type="move" name="bottom"/>
    </contour>
  </outline>
</glyph>
<glyph name="dd-deva" format="1">
  <advance width="1011"/>
  <outline>
    <component base="dda-deva"/>
    <component base="halant-deva" xOffset="413" yOffset="-36"/>
    <contour>
      <point x="239" y="584" type="move" name="top"/>
    </contour>
    <contour>
      <point x="239" y="14" type="move" name="bottom"/>
    </contour>
  </outline>
</glyph>
<glyph name="jh-deva" format="1">
  <advance width="1047"/>
  <outline>
    <contour>
      <point x="1110" y="520"/>
      <point x="970" y="483"/>
      <point x="807" y="485" type="curve"/>
      <point x="865" y="376" type="line"/>
      <point x="990" y="360"/>
      <point x="1161" y="394"/>
      <point x="1280" y="473" type="curve"/>
      <point x="1256" y="614" type="line"/>
    </contour>
    <contour>
      <point x="890" y="1262" type="line"/>
      <point x="890" y="1129" type="line"/>
      <point x="1061" y="1129" type="line"/>
      <point x="1061" y="1262" type="line"/>
    </contour>
    <component base="i-deva"/>
    <contour>
      <point x="256" y="584" type="move" name="top"/>
    </contour>
    <contour>
      <point x="256" y="14" type="move" name="bottom"/>
    </contour>
  </outline>
</glyph>
<glyph name="kh_la-deva.loclMAR" format="1">
  <advance width="1601"/>
  <outline>
    <contour>
      <point x="-15" y="1262" type="line"/>
      <point x="-15" y="1129" type="line"/>
      <point x="1616" y="1129" type="line"/>
      <point x="1616" y="1262" type="line"/>
    </contour>
    <contour>
      <point x="368" y="1182" type="line"/>
      <point x="368" y="874" type="line" smooth="yes"/>
      <point x="368" y="775"/>
      <point x="343" y="729"/>
      <point x="268" y="728" type="curve" smooth="yes"/>
      <point x="237" y="727"/>
      <point x="202" y="736"/>
      <point x="160" y="770" type="curve"/>
      <point x="60" y="701" type="line"/>
      <point x="228" y="245"/>
      <point x="496" y="76"/>
      <point x="778" y="76" type="curve" smooth="yes"/>
      <point x="852" y="76"/>
      <point x="951" y="84"/>
      <point x="1041" y="121" type="curve"/>
      <point x="1014" y="246" type="line"/>
      <point x="954" y="225"/>
      <point x="878" y="210"/>
      <point x="786" y="210" type="curve" smooth="yes"/>
      <point x="556" y="210"/>
      <point x="343" y="357"/>
      <point x="231" y="654" type="curve"/>
      <point x="210" y="623" type="line"/>
      <point x="241" y="612"/>
      <point x="277" y="600"/>
      <point x="321" y="600" type="curve" smooth="yes"/>
      <point x="421" y="600"/>
      <point x="525" y="660"/>
      <point x="525" y="874" type="curve" smooth="yes"/>
      <point x="525" y="1182" type="line"/>
    </contour>
    <contour>
      <point x="790" y="956"/>
      <point x="654" y="862"/>
      <point x="654" y="655" type="curve" smooth="yes"/>
      <point x="654" y="489"/>
      <point x="750" y="346"/>
      <point x="959" y="346" type="curve" smooth="yes"/>
      <point x="1100" y="346"/>
      <point x="1227" y="398"/>
      <point x="1301" y="497" type="curve"/>
      <point x="1283" y="635" type="line"/>
      <point x="1210" y="531"/>
      <point x="1106" y="476"/>
      <point x="981" y="476" type="curve" smooth="yes"/>
      <point x="866" y="476"/>
      <point x="811" y="535"/>
      <point x="811" y="649" type="curve" smooth="yes"/>
      <point x="811" y="755"/>
      <point x="856" y="826"/>
      <point x="1018" y="826" type="curve" smooth="yes"/>
      <point x="1105" y="826"/>
      <point x="1196" y="814"/>
      <point x="1302" y="778" type="curve"/>
      <point x="1300" y="877" type="line"/>
      <point x="1240" y="919"/>
      <point x="1126" y="956"/>
      <point x="990" y="956" type="curve" smooth="yes"/>
    </contour>
    <contour>
      <point x="1245" y="1187" type="line"/>
      <point x="1245" y="-87" type="line"/>
      <point x="1401" y="-87" type="line"/>
      <point x="1401" y="1187" type="line"/>
    </contour>
    <component base="add" xOffset="413" yOffset="-175"/>
    <contour>
      <point x="1323" y="1168" type="move" name="top"/>
    </contour>
    <contour>
      <point x="1209" y="-661" type="move" name="bottom"/>
    </contour>
    <contour>
      <point x="890" y="1168" type="move" name="topcandrabindu"/>
    </contour>
  </outline>
</glyph>
<glyph name="ng_ga-deva" format="1">
  <advance width="1216"/>
  <outline>
    <contour>
      <point x="437" y="981" type="line" smooth="yes"/>
      <point x="263" y="981"/>
      <point x="186" y="926"/>
      <point x="186" y="805" type="curve" smooth="yes"/>
      <point x="186" y="701"/>
      <point x="244" y="583"/>
      <point x="309" y="530" type="curve"/>
      <point x="336" y="510"/>
      <point x="352" y="508"/>
      <point x="372" y="510" type="curve" smooth="yes"/>
      <point x="410" y="514"/>
      <point x="575" y="538"/>
      <point x="686" y="538" type="curve" smooth="yes"/>
      <point x="808" y="538"/>
      <point x="849" y="508"/>
      <point x="849" y="437" type="curve" smooth="yes"/>
      <point x="849" y="335"/>
      <point x="770" y="293"/>
      <point x="602" y="293" type="curve" smooth="yes"/>
      <point x="397" y="293"/>
      <point x="293" y="359"/>
      <point x="185" y="469" type="curve"/>
      <point x="106" y="393" type="line"/>
      <point x="246" y="228"/>
      <point x="412" y="170"/>
      <point x="604" y="165" type="curve" smooth="yes"/>
      <point x="805" y="165"/>
      <point x="992" y="233"/>
      <point x="992" y="450" type="curve" smooth="yes"/>
      <point x="992" y="645"/>
      <point x="838" y="673"/>
      <point x="677" y="671" type="curve" smooth="yes"/>
      <point x="563" y="670"/>
      <point x="433" y="655"/>
      <point x="348" y="638" type="curve"/>
      <point x="370" y="626" type="line"/>
      <point x="353" y="640"/>
      <point x="322" y="700"/>
      <point x="322" y="763" type="curve" smooth="yes"/>
      <point x="322" y="828"/>
      <point x="354" y="850"/>
      <point x="473" y="850" type="curve" smooth="yes"/>
      <point x="819" y="850" type="line"/>
      <point x="802" y="981" type="line"/>
    </contour>
    <contour>
      <point x="345" y="3" type="line"/>
      <point x="187" y="-15" type="line"/>
      <point x="187" y="-120" type="line"/>
      <point x="347" y="-298" type="line"/>
      <point x="455" y="-296"/>
      <point x="470" y="-241"/>
      <point x="470" y="-186" type="curve" smooth="yes"/>
      <point x="470" y="3" type="line"/>
    </contour>
    <contour>
      <point x="322" y="271" type="line"/>
      <point x="322" y="-72" type="line"/>
      <point x="469" y="-75" type="line"/>
      <point x="469" y="271" type="line"/>
    </contour>
    <contour>
      <point x="719" y="266" type="line"/>
      <point x="719" y="-488" type="line"/>
      <point x="868" y="-488" type="line"/>
      <point x="868" y="266" type="line"/>
    </contour>
    <contour>
      <point x="-15" y="1261" type="line"/>
      <point x="-15" y="1129" type="line"/>
      <point x="1231" y="1129" type="line"/>
      <point x="1231" y="1261" type="line"/>
    </contour>
    <contour>
      <point x="726" y="1216" type="line"/>
      <point x="726" y="850" type="line"/>
      <point x="881" y="850" type="line"/>
      <point x="881" y="1216" type="line"/>
    </contour>
    <contour>
      <point x="953" y="828"/>
      <point x="926" y="802"/>
      <point x="926" y="740" type="curve" smooth="yes"/>
      <point x="926" y="680"/>
      <point x="953" y="654"/>
      <point x="1015" y="654" type="curve" smooth="yes"/>
      <point x="1076" y="654"/>
      <point x="1103" y="680"/>
      <point x="1103" y="740" type="curve" smooth="yes"/>
      <point x="1103" y="802"/>
      <point x="1076" y="828"/>
      <point x="1015" y="828" type="curve" smooth="yes"/>
    </contour>
    <contour>
      <point x="804" y="1168" type="move" name="top"/>
    </contour>
    <contour>
      <point x="794" y="-460" type="move" name="bottom"/>
    </contour>
    <contour>
      <point x="605" y="1168" type="move" name="topcandrabindu"/>
    </contour>
  </outline>
</glyph>
<glyph name="ng_gha-deva" format="1">
  <advance width="1209"/>
  <outline>
    <contour>
      <point x="425" y="981" type="line" smooth="yes"/>
      <point x="251" y="981"/>
      <point x="174" y="926"/>
      <point x="174" y="805" type="curve" smooth="yes"/>
      <point x="174" y="701"/>
      <point x="232" y="583"/>
      <point x="297" y="530" type="curve"/>
      <point x="325" y="509"/>
      <point x="343" y="508"/>
      <point x="360" y="510" type="curve" smooth="yes"/>
      <point x="409" y="515"/>
      <point x="563" y="538"/>
      <point x="677" y="538" type="curve" smooth="yes"/>
      <point x="800" y="538"/>
      <point x="837" y="506"/>
      <point x="837" y="433" type="curve" smooth="yes"/>
      <point x="837" y="335"/>
      <point x="754" y="293"/>
      <point x="591" y="293" type="curve" smooth="yes"/>
      <point x="391" y="293"/>
      <point x="282" y="358"/>
      <point x="173" y="469" type="curve"/>
      <point x="94" y="393" type="line"/>
      <point x="229" y="232"/>
      <point x="406" y="165"/>
      <point x="582" y="165" type="curve" smooth="yes"/>
      <point x="796" y="165"/>
      <point x="980" y="233"/>
      <point x="980" y="449" type="curve" smooth="yes"/>
      <point x="980" y="646"/>
      <point x="825" y="672"/>
      <point x="665" y="671" type="curve" smooth="yes"/>
      <point x="552" y="671"/>
      <point x="410" y="653"/>
      <point x="336" y="638" type="curve"/>
      <point x="358" y="626" type="line"/>
      <point x="341" y="640"/>
      <point x="310" y="700"/>
      <point x="310" y="762" type="curve" smooth="yes"/>
      <point x="310" y="828"/>
      <point x="341" y="850"/>
      <point x="461" y="850" type="curve" smooth="yes"/>
      <point x="807" y="850" type="line"/>
      <point x="790" y="981" type="line"/>
    </contour>
    <contour>
      <point x="271" y="-61"/>
      <point x="198" y="-182"/>
      <point x="198" y="-304" type="curve" smooth="yes"/>
      <point x="198" y="-448"/>
      <point x="297" y="-545"/>
      <point x="477" y="-545" type="curve" smooth="yes"/>
      <point x="634" y="-545"/>
      <point x="761" y="-484"/>
      <point x="839" y="-390" type="curve"/>
      <point x="818" y="-242" type="line"/>
      <point x="740" y="-350"/>
      <point x="617" y="-420"/>
      <point x="488" y="-420" type="curve" smooth="yes"/>
      <point x="392" y="-420"/>
      <point x="342" y="-379"/>
      <point x="342" y="-303" type="curve" smooth="yes"/>
      <point x="342" y="-215"/>
      <point x="406" y="-182"/>
      <point x="534" y="-168" type="curve"/>
      <point x="528" y="-52" type="line"/>
    </contour>
    <contour>
      <point x="319" y="266"/>
      <point x="155" y="220"/>
      <point x="155" y="62" type="curve" smooth="yes"/>
      <point x="155" y="-20"/>
      <point x="203" y="-97"/>
      <point x="376" y="-171" type="curve"/>
      <point x="442" y="-108" type="line"/>
      <point x="363" y="-68"/>
      <point x="302" y="-29"/>
      <point x="302" y="58" type="curve" smooth="yes"/>
      <point x="302" y="128"/>
      <point x="361" y="173"/>
      <point x="467" y="183" type="curve"/>
      <point x="480" y="268" type="line"/>
    </contour>
    <contour>
      <point x="752" y="285" type="line"/>
      <point x="752" y="-643" type="line"/>
      <point x="901" y="-643" type="line"/>
      <point x="901" y="285" type="line"/>
    </contour>
    <contour>
      <point x="-15" y="1261" type="line"/>
      <point x="-15" y="1129" type="line"/>
      <point x="1224" y="1129" type="line"/>
      <point x="1224" y="1261" type="line"/>
    </contour>
    <contour>
      <point x="714" y="1216" type="line"/>
      <point x="714" y="850" type="line"/>
      <point x="869" y="850" type="line"/>
      <point x="869" y="1216" type="line"/>
    </contour>
    <contour>
      <point x="954" y="828"/>
      <point x="927" y="802"/>
      <point x="927" y="740" type="curve" smooth="yes"/>
      <point x="927" y="680"/>
      <point x="954" y="654"/>
      <point x="1016" y="654" type="curve" smooth="yes"/>
      <point x="1077" y="654"/>
      <point x="1104" y="680"/>
      <point x="1104" y="740" type="curve" smooth="yes"/>
      <point x="1104" y="802"/>
      <point x="1077" y="828"/>
      <point x="1016" y="828" type="curve" smooth="yes"/>
    </contour>
    <contour>
      <point x="793" y="1168" type="move" name="top"/>
    </contour>
    <contour>
      <point x="848" y="-623" type="move" name="bottom"/>
    </contour>
    <contour>
      <point x="605" y="1168" type="move" name="topcandrabindu"/>
    </contour>
  </outline>
</glyph>
<glyph name="ng_ka-deva" format="1">
  <advance width="1206"/>
  <outline>
    <contour>
      <point x="798" y="165"/>
      <point x="982" y="233"/>
      <point x="982" y="449" type="curve" smooth="yes"/>
      <point x="982" y="646"/>
      <point x="827" y="672"/>
      <point x="667" y="671" type="curve" smooth="yes"/>
      <point x="554" y="671"/>
      <point x="412" y="653"/>
      <point x="338" y="638" type="curve"/>
      <point x="360" y="626" type="line"/>
      <point x="343" y="640"/>
      <point x="312" y="700"/>
      <point x="312" y="762" type="curve" smooth="yes"/>
      <point x="312" y="828"/>
      <point x="343" y="850"/>
      <point x="463" y="850" type="curve" smooth="yes"/>
      <point x="809" y="850" type="line"/>
      <point x="792" y="981" type="line"/>
      <point x="427" y="981" type="line" smooth="yes"/>
      <point x="253" y="981"/>
      <point x="176" y="926"/>
      <point x="176" y="805" type="curve" smooth="yes"/>
      <point x="176" y="701"/>
      <point x="234" y="583"/>
      <point x="299" y="530" type="curve"/>
      <point x="327" y="509"/>
      <point x="345" y="508"/>
      <point x="362" y="510" type="curve" smooth="yes"/>
      <point x="411" y="515"/>
      <point x="565" y="538"/>
      <point x="679" y="538" type="curve" smooth="yes"/>
      <point x="802" y="538"/>
      <point x="839" y="506"/>
      <point x="839" y="433" type="curve" smooth="yes"/>
      <point x="839" y="335"/>
      <point x="756" y="293"/>
      <point x="593" y="293" type="curve" smooth="yes"/>
      <point x="388" y="293"/>
      <point x="284" y="358"/>
      <point x="175" y="469" type="curve"/>
      <point x="96" y="393" type="line"/>
      <point x="223" y="236"/>
      <point x="395" y="170"/>
      <point x="584" y="165" type="curve" smooth="yes"/>
    </contour>
    <contour>
      <point x="443" y="-484"/>
      <point x="560" y="-420"/>
      <point x="626" y="-329" type="curve"/>
      <point x="597" y="-219" type="line"/>
      <point x="537" y="-302"/>
      <point x="443" y="-360"/>
      <point x="338" y="-360" type="curve" smooth="yes"/>
      <point x="246" y="-360"/>
      <point x="191" y="-310"/>
      <point x="191" y="-208" type="curve" smooth="yes"/>
      <point x="191" y="-85"/>
      <point x="262" y="-42"/>
      <point x="356" y="-39" type="curve" smooth="yes"/>
      <point x="433" y="-36"/>
      <point x="521" y="-50"/>
      <point x="621" y="-97" type="curve"/>
      <point x="621" y="-10" type="line"/>
      <point x="550" y="49"/>
      <point x="451" y="81"/>
      <point x="344" y="81" type="curve" smooth="yes"/>
      <point x="163" y="81"/>
      <point x="54" y="-16"/>
      <point x="54" y="-203" type="curve" smooth="yes"/>
      <point x="54" y="-347"/>
      <point x="136" y="-484"/>
      <point x="323" y="-484" type="curve" smooth="yes"/>
    </contour>
    <contour>
      <point x="704" y="-612" type="line"/>
      <point x="704" y="245" type="line"/>
      <point x="551" y="245" type="line"/>
      <point x="551" y="-612" type="line"/>
    </contour>
    <contour>
      <point x="1104" y="-408"/>
      <point x="1128" y="-284"/>
      <point x="1128" y="-204" type="curve" smooth="yes"/>
      <point x="1128" y="-42"/>
      <point x="1048" y="53"/>
      <point x="918" y="53" type="curve" smooth="yes"/>
      <point x="826" y="53"/>
      <point x="738" y="13"/>
      <point x="655" y="-84" type="curve"/>
      <point x="655" y="-265" type="line"/>
      <point x="739" y="-146"/>
      <point x="814" y="-80"/>
      <point x="896" y="-80" type="curve" smooth="yes"/>
      <point x="963" y="-80"/>
      <point x="992" y="-133"/>
      <point x="992" y="-209" type="curve" smooth="yes"/>
      <point x="992" y="-269"/>
      <point x="976" y="-352"/>
      <point x="896" y="-449" type="curve"/>
      <point x="1007" y="-525" type="line"/>
    </contour>
    <contour>
      <point x="1070" y="660"/>
      <point x="1097" y="686"/>
      <point x="1097" y="747" type="curve" smooth="yes"/>
      <point x="1097" y="808"/>
      <point x="1070" y="834"/>
      <point x="1009" y="834" type="curve" smooth="yes"/>
      <point x="947" y="834"/>
      <point x="920" y="808"/>
      <point x="920" y="747" type="curve" smooth="yes"/>
      <point x="920" y="686"/>
      <point x="947" y="660"/>
      <point x="1009" y="660" type="curve" smooth="yes"/>
    </contour>
    <contour>
      <point x="1048" y="970" type="line"/>
      <point x="1048" y="1233" type="line"/>
      <point x="333" y="1233" type="line"/>
      <point x="333" y="970" type="line"/>
    </contour>
    <contour>
      <point x="1045" y="1009" type="line"/>
      <point x="1045" y="1244" type="line"/>
      <point x="368" y="1244" type="line"/>
      <point x="368" y="1009" type="line"/>
    </contour>
    <contour>
      <point x="794" y="1168" type="move" name="top"/>
    </contour>
    <contour>
      <point x="627" y="-570" type="move" name="bottom"/>
    </contour>
    <contour>
      <point x="597" y="1168" type="move" name="topcandrabindu"/>
    </contour>
  </outline>
</glyph>
<glyph name="rakar_uMatra-deva" format="1">
  <advance width="600"/>
  <outline>
    <component base="rakar-deva" xOffset="1" yOffset="-12"/>
    <component base="uMatra-deva" xOffset="108" yOffset="35"/>
    <contour>
      <point x="136" y="192" type="move" name="_top"/>
    </contour>
  </outline>
</glyph>
<glyph name="rr-deva" format="1">
  <advance width="686"/>
  <outline>
    <component base="rra-deva"/>
    <contour>
      <point x="152" y="584" type="move" name="top"/>
    </contour>
    <contour>
      <point x="152" y="14" type="move" name="bottom"/>
    </contour>
  </outline>
</glyph>
<glyph name="sha-deva.ss02" format="1">
  <advance width="790"/>
  <outline>
    <contour>
      <point x="222" y="1296"/>
      <point x="95" y="1207"/>
      <point x="95" y="1032" type="curve" smooth="yes"/>
      <point x="95" y="926"/>
      <point x="141" y="824"/>
      <point x="293" y="728" type="curve"/>
      <point x="427" y="787" type="line"/>
      <point x="279" y="873"/>
      <point x="244" y="953"/>
      <point x="244" y="1024" type="curve" smooth="yes"/>
      <point x="244" y="1117"/>
      <point x="300" y="1168"/>
      <point x="412" y="1168" type="curve" smooth="yes"/>
      <point x="515" y="1168"/>
      <point x="573" y="1121"/>
      <point x="573" y="1031" type="curve" smooth="yes"/>
      <point x="573" y="935"/>
      <point x="506" y="866"/>
      <point x="360" y="778" type="curve" smooth="yes"/>
      <point x="239" y="708"/>
      <point x="75" y="635"/>
      <point x="-127" y="580" type="curve"/>
      <point x="-84" y="460" type="line"/>
      <point x="105" y="507"/>
      <point x="319" y="599"/>
      <point x="475" y="696" type="curve" smooth="yes"/>
      <point x="645" y="795"/>
      <point x="727" y="898"/>
      <point x="727" y="1035" type="curve" smooth="yes"/>
      <point x="727" y="1211"/>
      <point x="602" y="1296"/>
      <point x="412" y="1296" type="curve" smooth="yes"/>
    </contour>
    <contour>
      <point x="351" y="688" type="line"/>
      <point x="489" y="605"/>
      <point x="620" y="564"/>
      <point x="754" y="554" type="curve" smooth="yes"/>
      <point x="837" y="545"/>
      <point x="918" y="546"/>
      <point x="1024" y="557" type="curve"/>
      <point x="1022" y="688" type="line"/>
      <point x="946" y="675"/>
      <point x="859" y="672"/>
      <point x="771" y="681" type="curve" smooth="yes"/>
      <point x="664" y="690"/>
      <point x="557" y="716"/>
      <point x="464" y="765" type="curve"/>
    </contour>
    <contour>
      <point x="150" y="584" type="move" name="top"/>
    </contour>
    <contour>
      <point x="150" y="14" type="move" name="bottom"/>
    </contour>
  </outline>
</glyph>
<glyph name="sha_ra-deva" format="1">
  <advance width="1325"/>
  <outline>
    <contour>
      <point x="262" y="1296"/>
      <point x="140" y="1196"/>
      <point x="140" y="1032" type="curve" smooth="yes"/>
      <point x="140" y="928"/>
      <point x="186" y="824"/>
      <point x="349" y="723" type="curve"/>
      <point x="483" y="786" type="line"/>
      <point x="324" y="871"/>
      <point x="289" y="955"/>
      <point x="289" y="1020" type="curve" smooth="yes"/>
      <point x="289" y="1112"/>
      <point x="346" y="1168"/>
      <point x="460" y="1168" type="curve" smooth="yes"/>
      <point x="560" y="1168"/>
      <point x="625" y="1119"/>
      <point x="625" y="1026" type="curve" smooth="yes"/>
      <point x="625" y="927"/>
      <point x="551" y="858"/>
      <point x="415" y="778" type="curve"/>
      <point x="43" y="570" type="line"/>
      <point x="114" y="453" type="line"/>
      <point x="531" y="695" type="line"/>
      <point x="690" y="788"/>
      <point x="779" y="894"/>
      <point x="779" y="1032" type="curve" smooth="yes"/>
      <point x="779" y="1206"/>
      <point x="652" y="1296"/>
      <point x="460" y="1296" type="curve" smooth="yes"/>
    </contour>
    <contour>
      <point x="374" y="90" type="line"/>
      <point x="469" y="-25" type="line"/>
      <point x="1080" y="441" type="line"/>
      <point x="996" y="537" type="line"/>
    </contour>
    <contour>
      <point x="406" y="684" type="line"/>
      <point x="543" y="602"/>
      <point x="675" y="560"/>
      <point x="811" y="548" type="curve" smooth="yes"/>
      <point x="894" y="538"/>
      <point x="975" y="537"/>
      <point x="1078" y="546" type="curve"/>
      <point x="1076" y="678" type="line"/>
      <point x="995" y="669"/>
      <point x="911" y="667"/>
      <point x="826" y="676" type="curve" smooth="yes"/>
      <point x="721" y="686"/>
      <point x="615" y="712"/>
      <point x="519" y="762" type="curve"/>
    </contour>
    <contour>
      <point x="969" y="1199" type="line"/>
      <point x="969" y="0" type="line"/>
      <point x="1125" y="0" type="line"/>
      <point x="1125" y="1199" type="line"/>
    </contour>
    <contour>
      <point x="847" y="1262" type="line"/>
      <point x="847" y="1129" type="line"/>
      <point x="1340" y="1129" type="line"/>
      <point x="1340" y="1262" type="line"/>
    </contour>
    <contour>
      <point x="1047" y="1168" type="move" name="top"/>
    </contour>
    <contour>
      <point x="1047" y="28" type="move" name="bottom"/>
    </contour>
    <contour>
      <point x="950" y="1168" type="move" name="topcandrabindu"/>
    </contour>
  </outline>
</glyph>
<glyph name="v-deva" format="1">
  <advance width="605"/>
  <outline>
    <contour>
      <point x="276" y="932"/>
      <point x="70" y="871"/>
      <point x="70" y="564" type="curve" smooth="yes"/>
      <point x="70" y="379"/>
      <point x="164" y="213"/>
      <point x="411" y="213" type="curve" smooth="yes"/>
      <point x="567" y="213"/>
      <point x="709" y="276"/>
      <point x="816" y="411" type="curve"/>
      <point x="793" y="577" type="line"/>
      <point x="725" y="463"/>
      <point x="584" y="348"/>
      <point x="418" y="348" type="curve" smooth="yes"/>
      <point x="294" y="348"/>
      <point x="229" y="409"/>
      <point x="229" y="558" type="curve" smooth="yes"/>
      <point x="229" y="756"/>
      <point x="349" y="795"/>
      <point x="471" y="797" type="curve" smooth="yes"/>
      <point x="569" y="799"/>
      <point x="710" y="775"/>
      <point x="827" y="691" type="curve"/>
      <point x="867" y="809" type="line"/>
      <point x="767" y="890"/>
      <point x="605" y="932"/>
      <point x="469" y="932" type="curve" smooth="yes"/>
    </contour>
    <contour>
      <point x="-15" y="1262" type="line"/>
      <point x="-15" y="1129" type="line"/>
      <point x="614" y="1129" type="line"/>
      <point x="614" y="1262" type="line"/>
    </contour>
    <contour>
      <point x="152" y="584" type="move" name="top"/>
    </contour>
    <contour>
      <point x="152" y="14" type="move" name="bottom"/>
    </contour>
  </outline>
</glyph>
<glyph name="va_ra-deva" format="1">
  <advance width="1089"/>
  <outline>
    <contour>
      <point x="770" y="338" type="line"/>
      <point x="720" y="421" type="line"/>
      <point x="150" y="68" type="line"/>
      <point x="240" y="-49" type="line"/>
    </contour>
    <component base="va-deva"/>
    <contour>
      <point x="815" y="1168" type="move" name="top"/>
    </contour>
    <contour>
      <point x="815" y="28" type="move" name="bottom"/>
    </contour>
  </outline>
</glyph>
<glyph name="zha-deva.np" format="1">
  <advance width="1152"/>
  <outline>
    <contour>
      <point x="470" y="1157" type="line"/>
      <point x="470" y="704" type="line" smooth="yes"/>
      <point x="470" y="573"/>
      <point x="393" y="530"/>
      <point x="304" y="530" type="curve" smooth="yes"/>
      <point x="224" y="530"/>
      <point x="157" y="569"/>
      <point x="95" y="609" type="curve"/>
      <point x="31" y="493" type="line"/>
      <point x="105" y="435"/>
      <point x="209" y="397"/>
      <point x="309" y="397" type="curve" smooth="yes"/>
      <point x="482" y="397"/>
      <point x="626" y="503"/>
      <point x="626" y="724" type="curve" smooth="yes"/>
      <point x="626" y="1173" type="line"/>
    </contour>
    <contour>
      <point x="584" y="157" type="line"/>
      <point x="985" y="-348" type="line"/>
      <point x="1100" y="-254" type="line"/>
      <point x="684" y="198" type="line"/>
    </contour>
    <contour>
      <point x="519" y="289" type="line"/>
      <point x="487" y="230"/>
      <point x="477" y="180"/>
      <point x="474" y="148" type="curve" smooth="yes"/>
      <point x="476" y="72"/>
      <point x="532" y="38"/>
      <point x="585" y="37" type="curve" smooth="yes"/>
      <point x="632" y="38"/>
      <point x="677" y="52"/>
      <point x="762" y="94" type="curve"/>
      <point x="749" y="125" type="line"/>
      <point x="611" y="289" type="line"/>
    </contour>
    <contour>
      <point x="674" y="825"/>
      <point x="559" y="781"/>
      <point x="519" y="731" type="curve"/>
      <point x="575" y="634" type="line"/>
      <point x="613" y="666"/>
      <point x="681" y="694"/>
      <point x="762" y="694" type="curve" smooth="yes"/>
      <point x="889" y="694"/>
      <point x="952" y="625"/>
      <point x="952" y="509" type="curve" smooth="yes"/>
      <point x="952" y="359"/>
      <point x="831" y="248"/>
      <point x="587" y="153" type="curve"/>
      <point x="681" y="63" type="line"/>
      <point x="940" y="159"/>
      <point x="1098" y="311"/>
      <point x="1098" y="524" type="curve" smooth="yes"/>
      <point x="1098" y="690"/>
      <point x="990" y="825"/>
      <point x="769" y="825" type="curve" smooth="yes"/>
    </contour>
    <contour>
      <point x="-15" y="1262" type="line"/>
      <point x="-15" y="1129" type="line"/>
      <point x="1167" y="1129" type="line"/>
      <point x="1167" y="1262" type="line"/>
    </contour>
  </outline>
</glyph>
